<svg width="61" height="62" viewBox="0 0 61 62" fill="none" xmlns="http://www.w3.org/2000/svg">
  <g clip-path="url(#clip0_1_2)">
    <path d="M30.5 0C13.664 0 0 13.864 0 30.857C0 47.85 13.664 61.714 30.5 61.714C37.003 61.714 43.003 59.857 48.003 56.571L41.003 47.857C37.503 50.286 34.003 51.429 30.5 51.429C19.003 51.429 9.5 41.857 9.5 30.857C9.5 19.857 19.003 10.286 30.5 10.286C41.997 10.286 51.5 19.857 51.5 30.857C51.5 33.143 51.003 35.143 50.003 37.143L58.003 45.857C59.997 42.286 61 37.857 61 33.143C61 13.864 47.336 0 30.5 0ZM30.5 20.571C24.003 20.571 18.5 26.143 18.5 32.857C18.5 39.571 24.003 45.143 30.5 45.143C36.997 45.143 42.5 39.571 42.5 32.857C42.5 26.143 36.997 20.571 30.5 20.571Z" fill="#FFD600"/>
    <rect x="41.5" y="41.857" width="10" height="10" rx="2" transform="rotate(45 41.5 41.857)" fill="#FFD600"/>
  </g>
  <defs>
    <clipPath id="clip0_1_2">
      <rect width="61" height="61.714" fill="white"/>
    </clipPath>
  </defs>
</svg> 